<svg width="1440" height="324" viewBox="0 0 1440 324" fill="none" xmlns="http://www.w3.org/2000/svg">
<g clip-path="url(#clip0_1_502)">
<rect width="1592" height="138" transform="translate(-79 186.168) rotate(-6.71552)" fill="#C3FF44"/>
<path d="M-68.5584 274.846L-73.3039 234.544L-44.3406 231.133L-43.5727 237.654L-64.8987 240.166L-63.6258 250.975L-44.4149 248.713L-43.647 255.234L-62.858 257.497L-60.9211 273.946L-68.5584 274.846Z" fill="#063835"/>
<path d="M-33.3457 270.699L-38.0912 230.397L-30.4538 229.498L-25.7083 269.8L-33.3457 270.699Z" fill="#063835"/>
<path d="M-7.4828 267.654L-11.4535 233.932L-24.3195 235.447L-25.0943 228.867L8.33393 224.931L9.10869 231.511L-3.8161 233.033L0.154579 266.755L-7.4828 267.654Z" fill="#063835"/>
<path d="M18.4338 264.602L13.6883 224.301L20.9732 223.443L40.9883 245.209C41.2118 245.421 41.486 245.726 41.8109 246.125C42.1312 246.484 42.4319 246.846 42.713 247.21C42.9941 247.574 43.1877 247.869 43.2937 248.095L43.5874 248.06C43.5229 247.512 43.4606 246.983 43.4006 246.474C43.3407 245.965 43.2807 245.456 43.2208 244.946L40.4192 221.153L47.7628 220.288L52.5083 260.59L45.2821 261.441L25.1875 239.505C24.8189 239.072 24.3799 238.548 23.8707 237.933C23.396 237.274 23.0642 236.817 22.8753 236.561L22.5815 236.596C22.6415 237.105 22.7037 237.634 22.7683 238.182C22.8282 238.691 22.8905 239.22 22.9551 239.768L25.7774 263.738L18.4338 264.602Z" fill="#063835"/>
<path d="M60.8754 259.605L56.13 219.303L87.5607 215.602L88.3286 222.123L64.5352 224.925L65.7043 234.854L86.9127 232.356L87.6805 238.878L66.4721 241.375L67.7449 252.185L91.8908 249.341L92.6587 255.863L60.8754 259.605Z" fill="#063835"/>
<path d="M114.883 253.961C112.65 254.223 110.488 254.24 108.396 254.01C106.299 253.74 104.408 253.189 102.721 252.355C101.03 251.482 99.6443 250.335 98.5636 248.913C97.4783 247.453 96.8112 245.665 96.5621 243.55C96.5345 243.315 96.5068 243.08 96.4791 242.845C96.4906 242.605 96.4895 242.427 96.4756 242.309L104.172 241.403C104.181 241.481 104.18 241.64 104.168 241.88C104.191 242.076 104.212 242.252 104.231 242.409C104.383 243.701 104.886 244.774 105.741 245.626C106.591 246.439 107.751 247.017 109.221 247.36C110.687 247.664 112.379 247.703 114.298 247.477C115.591 247.325 116.717 247.113 117.678 246.841C118.678 246.565 119.514 246.248 120.187 245.891C120.894 245.49 121.46 245.066 121.883 244.619C122.303 244.132 122.58 243.623 122.716 243.091C122.891 242.554 122.944 241.992 122.875 241.405C122.741 240.269 122.278 239.37 121.485 238.709C120.693 238.048 119.659 237.534 118.385 237.168C117.15 236.797 115.746 236.506 114.173 236.294C112.633 236.039 111.036 235.79 109.379 235.548C107.762 235.302 106.155 234.975 104.558 234.567C102.996 234.116 101.557 233.531 100.242 232.812C98.9651 232.089 97.8983 231.122 97.0411 229.913C96.1794 228.664 95.6401 227.12 95.4233 225.279C95.202 223.399 95.3999 221.708 96.0172 220.205C96.6737 218.699 97.6735 217.41 99.0166 216.338C100.394 215.223 102.037 214.335 103.944 213.673C105.847 212.973 107.954 212.486 110.265 212.214C112.419 211.96 114.464 211.958 116.399 212.207C118.369 212.411 120.136 212.918 121.701 213.727C123.26 214.496 124.539 215.576 125.537 216.968C126.53 218.32 127.147 220.015 127.386 222.051L127.469 222.756L119.891 223.649L119.822 223.061C119.688 221.925 119.222 221.007 118.425 220.307C117.667 219.602 116.636 219.108 115.332 218.825C114.067 218.537 112.612 218.49 110.967 218.683C109.205 218.891 107.718 219.245 106.506 219.745C105.289 220.206 104.387 220.808 103.8 221.553C103.208 222.258 102.967 223.08 103.078 224.02C103.193 224.999 103.643 225.78 104.426 226.363C105.209 226.946 106.216 227.403 107.447 227.735C108.716 228.062 110.118 228.333 111.652 228.55C113.226 228.762 114.824 229.01 116.446 229.296C118.102 229.538 119.709 229.865 121.267 230.277C122.863 230.684 124.302 231.27 125.583 232.032C126.899 232.751 127.985 233.715 128.843 234.924C129.7 236.134 130.234 237.639 130.447 239.441C130.802 242.457 130.343 244.973 129.072 246.989C127.839 249 125.979 250.569 123.491 251.696C121.042 252.818 118.173 253.573 114.883 253.961Z" fill="#063835"/>
<path d="M153.48 249.416C151.248 249.679 149.086 249.695 146.994 249.465C144.897 249.195 143.006 248.644 141.319 247.81C139.628 246.937 138.242 245.79 137.161 244.368C136.076 242.908 135.409 241.12 135.16 239.005C135.132 238.77 135.104 238.535 135.077 238.3C135.088 238.06 135.087 237.882 135.073 237.764L142.769 236.858C142.779 236.937 142.778 237.096 142.766 237.335C142.789 237.531 142.81 237.707 142.828 237.864C142.98 239.156 143.484 240.229 144.339 241.081C145.189 241.894 146.349 242.472 147.819 242.816C149.284 243.12 150.977 243.159 152.896 242.933C154.188 242.78 155.315 242.568 156.276 242.296C157.275 242.02 158.112 241.703 158.784 241.346C159.492 240.945 160.057 240.521 160.481 240.074C160.9 239.588 161.178 239.078 161.314 238.546C161.489 238.009 161.542 237.447 161.473 236.86C161.339 235.724 160.876 234.826 160.083 234.164C159.29 233.503 158.257 232.99 156.983 232.623C155.748 232.253 154.344 231.961 152.77 231.749C151.231 231.494 149.633 231.245 147.977 231.003C146.359 230.757 144.752 230.43 143.156 230.022C141.594 229.571 140.155 228.986 138.839 228.267C137.563 227.544 136.496 226.578 135.639 225.368C134.777 224.12 134.238 222.575 134.021 220.734C133.8 218.854 133.998 217.163 134.615 215.661C135.271 214.154 136.271 212.865 137.614 211.793C138.992 210.678 140.634 209.79 142.542 209.128C144.445 208.428 146.552 207.941 148.863 207.669C151.017 207.416 153.062 207.413 154.997 207.662C156.967 207.867 158.734 208.373 160.298 209.182C161.858 209.951 163.137 211.032 164.135 212.423C165.128 213.775 165.744 215.47 165.984 217.506L166.067 218.211L158.488 219.104L158.419 218.516C158.286 217.381 157.82 216.462 157.023 215.762C156.265 215.057 155.234 214.563 153.93 214.28C152.665 213.992 151.21 213.945 149.565 214.139C147.802 214.346 146.315 214.7 145.103 215.2C143.887 215.661 142.985 216.264 142.398 217.008C141.806 217.713 141.565 218.535 141.676 219.475C141.791 220.454 142.24 221.235 143.024 221.818C143.807 222.401 144.814 222.858 146.044 223.19C147.314 223.517 148.716 223.789 150.25 224.005C151.824 224.217 153.422 224.466 155.043 224.751C156.7 224.993 158.307 225.32 159.865 225.732C161.461 226.14 162.9 226.725 164.181 227.487C165.497 228.206 166.583 229.17 167.44 230.379C168.297 231.589 168.832 233.094 169.044 234.896C169.399 237.912 168.941 240.428 167.67 242.444C166.437 244.455 164.577 246.024 162.089 247.151C159.64 248.274 156.77 249.028 153.48 249.416Z" fill="#063835"/>
<path d="M252.47 228.698L261.392 227.647L271.913 214.326L258.585 203.812L249.664 204.862L262.992 215.376L252.47 228.698Z" fill="#063835"/>
<path d="M240.186 230.144L249.108 229.094L259.629 215.772L246.301 205.258L237.379 206.309L250.707 216.823L240.186 230.144Z" fill="#063835"/>
<path d="M227.901 231.591L236.823 230.54L247.344 217.218L234.017 206.705L225.095 207.755L238.423 218.269L227.901 231.591Z" fill="#063835"/>
<path d="M348.232 225.77L346.302 209.379L327.977 187.294L336.789 186.256L349.429 202.041L349.723 202.007L358.233 183.731L366.575 182.749L353.939 208.479L355.869 224.87L348.232 225.77Z" fill="#063835"/>
<path d="M393.5 221.154C389.309 221.648 385.598 221.33 382.368 220.201C379.133 219.034 376.511 217 374.502 214.099C372.532 211.194 371.27 207.392 370.717 202.692C370.159 197.953 370.503 193.961 371.749 190.717C373.029 187.429 375.11 184.861 377.989 183.013C380.864 181.126 384.397 179.936 388.588 179.442C392.818 178.944 396.531 179.281 399.726 180.454C402.957 181.582 405.557 183.599 407.527 186.504C409.532 189.366 410.813 193.166 411.371 197.905C411.924 202.605 411.561 206.599 410.28 209.886C409.039 213.17 406.98 215.755 404.105 217.642C401.265 219.485 397.729 220.656 393.5 221.154ZM392.739 214.692C394.775 214.452 396.523 213.948 397.981 213.181C399.478 212.409 400.689 211.393 401.613 210.133C402.532 208.833 403.167 207.309 403.517 205.56C403.862 203.772 403.903 201.762 403.64 199.53L403.488 198.237C403.221 195.966 402.711 194.001 401.96 192.342C401.209 190.683 400.238 189.348 399.046 188.337C397.851 187.286 396.435 186.559 394.799 186.156C393.202 185.749 391.386 185.665 389.349 185.905C387.312 186.145 385.545 186.65 384.048 187.422C382.59 188.19 381.401 189.223 380.482 190.523C379.558 191.783 378.923 193.307 378.578 195.095C378.272 196.878 378.252 198.906 378.52 201.177L378.672 202.47C378.935 204.702 379.422 206.65 380.134 208.313C380.881 209.933 381.852 211.268 383.048 212.319C384.239 213.33 385.633 214.039 387.23 214.447C388.866 214.85 390.702 214.932 392.739 214.692Z" fill="#063835"/>
<path d="M438.691 215.833C432.464 216.566 427.431 215.471 423.592 212.548C419.749 209.586 417.403 204.501 416.554 197.294C415.996 192.555 416.34 188.564 417.586 185.32C418.867 182.032 420.947 179.464 423.827 177.616C426.741 175.724 430.352 174.525 434.661 174.017C437.246 173.713 439.709 173.721 442.049 174.041C444.39 174.361 446.494 175.026 448.36 176.038C450.261 177.005 451.807 178.332 452.998 180.018C454.189 181.705 454.93 183.782 455.221 186.249L447.348 187.176C447.196 185.884 446.769 184.782 446.066 183.872C445.398 182.919 444.515 182.169 443.419 181.623C442.356 181.033 441.161 180.658 439.831 180.497C438.497 180.296 437.106 180.281 435.657 180.452C433.502 180.706 431.638 181.223 430.062 182.004C428.52 182.742 427.271 183.763 426.312 185.067C425.389 186.327 424.754 187.851 424.409 189.639C424.102 191.422 424.085 193.469 424.357 195.78L424.503 197.014C424.876 200.186 425.633 202.738 426.774 204.668C427.915 206.599 429.443 207.948 431.36 208.715C433.312 209.438 435.639 209.64 438.341 209.322C440.652 209.05 442.628 208.46 444.268 207.552C445.947 206.64 447.198 205.46 448.021 204.013C448.877 202.522 449.191 200.798 448.96 198.839L448.912 198.428L436.046 199.943L435.299 193.598L455.802 191.184L458.348 212.804L452.884 213.447L451.712 209.058C450.675 210.372 449.537 211.498 448.298 212.438C447.054 213.339 445.65 214.061 444.085 214.602C442.526 215.183 440.728 215.593 438.691 215.833Z" fill="#063835"/>
<path d="M462.163 212.354L473.104 170.206L482.738 169.071L503.229 207.519L494.945 208.494L490.704 200.298L472.257 202.47L470.035 211.427L462.163 212.354ZM473.904 195.724L487.475 194.126L482.135 183.676C481.932 183.302 481.679 182.836 481.375 182.276C481.105 181.673 480.811 181.032 480.493 180.355C480.171 179.638 479.848 178.922 479.525 178.205C479.203 177.489 478.909 176.848 478.644 176.284L478.35 176.319C478.207 177.129 478.02 178.065 477.787 179.125C477.594 180.18 477.393 181.176 477.186 182.114C476.979 183.052 476.807 183.787 476.671 184.319L473.904 195.724Z" fill="#063835"/>
<path d="M585.264 189.512L594.186 188.462L604.707 175.14L591.379 164.626L582.458 165.677L595.786 176.19L585.264 189.512Z" fill="#063835"/>
<path d="M572.98 190.959L581.902 189.908L592.423 176.586L579.095 166.073L570.173 167.123L583.501 177.637L572.98 190.959Z" fill="#063835"/>
<path d="M560.695 192.405L569.617 191.354L580.138 178.033L566.811 167.519L557.889 168.57L571.217 179.083L560.695 192.405Z" fill="#063835"/>
<path d="M665.516 188.41L676.457 146.261L686.092 145.127L706.582 183.575L698.298 184.55L694.057 176.353L675.61 178.525L673.389 187.483L665.516 188.41ZM677.258 171.779L690.829 170.181L685.488 159.731C685.286 159.358 685.032 158.891 684.728 158.332C684.458 157.728 684.165 157.088 683.847 156.41C683.524 155.694 683.201 154.977 682.879 154.261C682.556 153.544 682.262 152.904 681.997 152.339L681.703 152.374C681.561 153.185 681.373 154.12 681.14 155.18C680.947 156.235 680.747 157.232 680.539 158.17C680.332 159.107 680.161 159.842 680.025 160.375L677.258 171.779Z" fill="#063835"/>
<path d="M710.752 183.084L706.007 142.782L737.437 139.081L738.205 145.602L714.412 148.404L715.581 158.332L736.789 155.835L737.557 162.356L716.349 164.853L717.622 175.663L741.768 172.82L742.535 179.341L710.752 183.084Z" fill="#063835"/>
<path d="M749.637 178.505L744.891 138.203L766.1 135.706C769.076 135.355 771.604 135.574 773.682 136.362C775.76 137.15 777.4 138.426 778.6 140.19C779.801 141.955 780.551 144.11 780.85 146.656C781.159 149.28 780.846 151.68 779.911 153.855C778.971 155.991 777.426 157.701 775.274 158.987L785.532 174.278L777.19 175.261L768.024 161.151L755.51 162.625L757.274 177.606L749.637 178.505ZM754.756 156.221L767.74 154.692C769.698 154.462 771.139 153.716 772.063 152.456C772.986 151.196 773.331 149.567 773.096 147.569C772.943 146.277 772.582 145.227 772.01 144.421C771.434 143.576 770.668 142.971 769.712 142.607C768.756 142.243 767.612 142.139 766.28 142.296L753.297 143.825L754.756 156.221Z" fill="#063835"/>
<path d="M809.463 172.175C805.272 172.669 801.561 172.351 798.331 171.223C795.096 170.055 792.474 168.021 790.465 165.12C788.495 162.215 787.233 158.413 786.68 153.713C786.122 148.974 786.466 144.982 787.712 141.738C788.992 138.45 791.073 135.883 793.952 134.035C796.827 132.147 800.36 130.957 804.551 130.464C808.781 129.966 812.494 130.303 815.689 131.475C818.92 132.604 821.52 134.62 823.49 137.526C825.495 140.387 826.776 144.187 827.334 148.926C827.887 153.626 827.524 157.62 826.243 160.908C825.002 164.191 822.943 166.776 820.068 168.663C817.228 170.507 813.692 171.677 809.463 172.175ZM808.702 165.713C810.738 165.473 812.486 164.97 813.944 164.202C815.441 163.43 816.652 162.414 817.576 161.154C818.495 159.854 819.13 158.33 819.48 156.582C819.825 154.794 819.866 152.784 819.603 150.551L819.451 149.259C819.184 146.987 818.674 145.022 817.923 143.363C817.172 141.704 816.201 140.369 815.009 139.358C813.814 138.307 812.398 137.581 810.762 137.178C809.165 136.77 807.349 136.686 805.312 136.926C803.275 137.166 801.508 137.672 800.011 138.444C798.553 139.211 797.364 140.244 796.445 141.544C795.521 142.804 794.886 144.328 794.541 146.116C794.235 147.899 794.215 149.927 794.483 152.199L794.635 153.491C794.898 155.723 795.385 157.671 796.097 159.335C796.844 160.954 797.815 162.289 799.011 163.34C800.202 164.351 801.596 165.061 803.193 165.468C804.829 165.871 806.665 165.953 808.702 165.713Z" fill="#063835"/>
<path d="M836.241 168.308L831.496 128.006L853.468 125.419C855.622 125.165 857.59 125.35 859.371 125.974C861.191 126.594 862.678 127.59 863.832 128.963C864.987 130.336 865.682 132.021 865.917 134.019C866.097 135.546 865.967 136.971 865.527 138.294C865.087 139.616 864.408 140.768 863.491 141.75C862.609 142.688 861.567 143.446 860.364 144.024L860.392 144.259C861.917 144.397 863.32 144.848 864.601 145.61C865.878 146.333 866.929 147.341 867.757 148.634C868.579 149.887 869.094 151.395 869.302 153.157C869.597 155.664 869.274 157.807 868.331 159.585C867.428 161.359 866.085 162.768 864.302 163.812C862.554 164.812 860.524 165.448 858.213 165.72L836.241 168.308ZM843.111 160.887L856.447 159.317C858.053 159.128 859.314 158.542 860.231 157.561C861.182 156.536 861.547 155.083 861.326 153.203C861.197 152.106 860.868 151.172 860.341 150.4C859.813 149.629 859.073 149.08 858.122 148.756C857.205 148.387 856.061 148.283 854.69 148.445L841.824 149.96L843.111 160.887ZM841.07 143.556L853.407 142.103C854.582 141.965 855.536 141.634 856.269 141.111C857.04 140.584 857.578 139.925 857.882 139.134C858.226 138.34 858.344 137.492 858.238 136.591C858.035 134.868 857.415 133.65 856.378 132.938C855.381 132.222 854.138 131.951 852.649 132.126L839.901 133.628L841.07 143.556Z" fill="#063835"/>
<path d="M877.134 163.493L872.388 123.191L880.026 122.291L884.771 162.593L877.134 163.493Z" fill="#063835"/>
<path d="M910.952 160.225C906.84 160.71 903.229 160.4 900.121 159.297C897.052 158.189 894.555 156.2 892.628 153.329C890.736 150.415 889.505 146.53 888.933 141.673C888.098 134.584 889.203 129.133 892.249 125.319C895.294 121.506 899.891 119.237 906.041 118.513C909.37 118.121 912.433 118.337 915.23 119.159C918.066 119.976 920.403 121.448 922.242 123.575C924.115 125.657 925.26 128.461 925.675 131.986L917.861 132.906C917.63 130.948 917.006 129.353 915.987 128.123C915.004 126.849 913.726 125.947 912.155 125.418C910.583 124.888 908.838 124.736 906.919 124.962C904.256 125.276 902.105 126.065 900.467 127.33C898.825 128.556 897.692 130.238 897.07 132.376C896.488 134.509 896.374 137.084 896.729 140.1L896.881 141.392C897.241 144.447 897.952 146.945 899.014 148.884C900.116 150.819 901.588 152.195 903.431 153.01C905.314 153.821 907.606 154.067 910.309 153.749C912.345 153.509 914.088 152.967 915.537 152.121C916.982 151.236 918.037 150.079 918.702 148.651C919.403 147.179 919.637 145.463 919.407 143.505L926.927 142.62C927.342 146.144 926.902 149.155 925.607 151.65C924.308 154.106 922.374 156.061 919.806 157.515C917.271 158.925 914.32 159.829 910.952 160.225Z" fill="#063835"/>
<path d="M950.003 155.627C947.77 155.89 945.608 155.906 943.516 155.676C941.419 155.407 939.528 154.855 937.841 154.021C936.15 153.148 934.764 152.001 933.684 150.58C932.598 149.119 931.931 147.331 931.682 145.216C931.654 144.981 931.627 144.746 931.599 144.511C931.611 144.272 931.609 144.093 931.596 143.976L939.292 143.07C939.301 143.148 939.3 143.307 939.288 143.547C939.311 143.742 939.332 143.919 939.351 144.075C939.503 145.368 940.006 146.44 940.861 147.293C941.711 148.106 942.871 148.684 944.341 149.027C945.807 149.331 947.499 149.37 949.418 149.144C950.71 148.992 951.837 148.78 952.798 148.508C953.798 148.231 954.634 147.914 955.307 147.557C956.014 147.156 956.579 146.732 957.003 146.285C957.423 145.799 957.7 145.29 957.836 144.758C958.011 144.221 958.064 143.659 957.995 143.071C957.861 141.935 957.398 141.037 956.605 140.376C955.813 139.715 954.779 139.201 953.505 138.835C952.27 138.464 950.866 138.173 949.292 137.961C947.753 137.705 946.156 137.457 944.499 137.215C942.882 136.968 941.275 136.641 939.678 136.234C938.116 135.782 936.677 135.197 935.362 134.479C934.085 133.755 933.018 132.789 932.161 131.58C931.299 130.331 930.76 128.786 930.543 126.945C930.322 125.065 930.52 123.374 931.137 121.872C931.794 120.365 932.793 119.076 934.137 118.005C935.514 116.889 937.157 116.001 939.064 115.34C940.967 114.639 943.074 114.153 945.385 113.881C947.539 113.627 949.584 113.625 951.519 113.873C953.489 114.078 955.256 114.585 956.821 115.393C958.38 116.163 959.659 117.243 960.657 118.635C961.65 119.987 962.267 121.681 962.506 123.718L962.589 124.423L955.011 125.315L954.941 124.728C954.808 123.592 954.342 122.674 953.545 121.974C952.787 121.269 951.756 120.775 950.452 120.491C949.187 120.203 947.732 120.156 946.087 120.35C944.325 120.558 942.838 120.911 941.626 121.411C940.409 121.872 939.507 122.475 938.92 123.219C938.328 123.924 938.087 124.747 938.198 125.687C938.313 126.666 938.763 127.447 939.546 128.03C940.329 128.612 941.336 129.07 942.566 129.401C943.836 129.728 945.238 130 946.772 130.216C948.346 130.428 949.944 130.677 951.566 130.962C953.222 131.204 954.829 131.531 956.387 131.943C957.983 132.351 959.422 132.936 960.703 133.699C962.019 134.417 963.105 135.381 963.963 136.591C964.82 137.8 965.354 139.306 965.566 141.108C965.922 144.123 965.463 146.639 964.192 148.655C962.959 150.667 961.099 152.236 958.611 153.363C956.162 154.485 953.293 155.24 950.003 155.627Z" fill="#063835"/>
<path d="M1048.99 134.909L1057.91 133.859L1068.44 120.537L1055.11 110.023L1046.19 111.074L1059.51 121.587L1048.99 134.909Z" fill="#063835"/>
<path d="M1036.71 136.356L1045.63 135.305L1056.15 121.983L1042.82 111.47L1033.9 112.52L1047.23 123.034L1036.71 136.356Z" fill="#063835"/>
<path d="M1024.42 137.802L1033.35 136.752L1043.87 123.43L1030.54 112.916L1021.62 113.967L1034.95 124.48L1024.42 137.802Z" fill="#063835"/>
<path d="M1149.01 132.195C1142.78 132.928 1137.75 131.833 1133.91 128.91C1130.07 125.947 1127.72 120.863 1126.87 113.656C1126.31 108.917 1126.66 104.926 1127.9 101.682C1129.18 98.3937 1131.26 95.8258 1134.14 93.9778C1137.06 92.086 1140.67 90.8864 1144.98 90.3791C1147.56 90.0748 1150.03 90.0826 1152.37 90.4026C1154.71 90.7226 1156.81 91.3882 1158.68 92.3995C1160.58 93.3669 1162.12 94.6938 1163.32 96.3802C1164.51 98.0665 1165.25 100.143 1165.54 102.611L1157.67 103.538C1157.51 102.245 1157.09 101.144 1156.38 100.234C1155.72 99.2804 1154.83 98.5306 1153.74 97.9846C1152.67 97.3949 1151.48 97.0195 1150.15 96.8584C1148.81 96.6581 1147.42 96.6432 1145.97 96.8139C1143.82 97.0675 1141.96 97.5849 1140.38 98.3661C1138.84 99.1035 1137.59 100.124 1136.63 101.428C1135.71 102.689 1135.07 104.213 1134.73 106.001C1134.42 107.784 1134.4 109.831 1134.68 112.142L1134.82 113.375C1135.19 116.548 1135.95 119.099 1137.09 121.03C1138.23 122.961 1139.76 124.309 1141.68 125.076C1143.63 125.8 1145.96 126.002 1148.66 125.684C1150.97 125.412 1152.95 124.822 1154.59 123.914C1156.26 123.001 1157.52 121.822 1158.34 120.375C1159.2 118.884 1159.51 117.16 1159.28 115.201L1159.23 114.79L1146.36 116.305L1145.62 109.96L1166.12 107.546L1168.67 129.165L1163.2 129.809L1162.03 125.42C1160.99 126.733 1159.85 127.86 1158.62 128.8C1157.37 129.701 1155.97 130.422 1154.4 130.964C1152.84 131.545 1151.05 131.955 1149.01 132.195Z" fill="#063835"/>
<path d="M1188.28 126.855L1186.35 110.464L1168.03 88.3797L1176.84 87.3421L1189.48 103.127L1189.77 103.093L1198.28 84.8172L1206.63 83.8349L1193.99 109.565L1195.92 125.956L1188.28 126.855Z" fill="#063835"/>
<path d="M1215.82 123.613L1211.08 83.3108L1223.12 81.8927L1232.11 103.588C1232.44 104.343 1232.77 105.197 1233.13 106.148C1233.48 107.1 1233.8 108.015 1234.1 108.892C1234.44 109.766 1234.71 110.528 1234.91 111.18L1235.38 111.125C1235.39 110.528 1235.42 109.79 1235.48 108.91C1235.53 108.029 1235.6 107.088 1235.68 106.086C1235.79 105.04 1235.93 104.031 1236.1 103.059L1239.81 79.9282L1251.73 78.5239L1256.48 118.826L1248.84 119.725L1246.44 99.3391C1246.23 97.5375 1246.04 95.7335 1245.86 93.9273C1245.69 92.121 1245.55 90.5694 1245.43 89.2723C1245.36 87.9706 1245.31 87.2022 1245.28 86.9672L1244.81 87.0226C1244.77 87.3843 1244.67 88.1711 1244.49 89.383C1244.32 90.5948 1244.14 91.9069 1243.94 93.3192C1243.75 94.7316 1243.58 95.9434 1243.42 96.9549L1239.5 120.825L1232.45 121.655L1223.1 99.4071C1222.77 98.6123 1222.38 97.6654 1221.93 96.5665C1221.52 95.4238 1221.08 94.2638 1220.63 93.0866C1220.21 91.9047 1219.83 90.8772 1219.49 90.004L1219.02 90.0594C1219.18 91.1122 1219.37 92.3805 1219.59 93.8642C1219.8 95.3088 1220.01 96.7925 1220.23 98.3153C1220.44 99.799 1220.62 101.148 1220.77 102.362L1223.17 122.748L1215.82 123.613Z" fill="#063835"/>
<path d="M1264.81 117.845L1260.06 77.5433L1267.34 76.6856L1287.36 98.4521C1287.58 98.664 1287.86 98.9693 1288.18 99.3678C1288.5 99.7272 1288.8 100.089 1289.08 100.453C1289.37 100.817 1289.56 101.112 1289.67 101.338L1289.96 101.303C1289.89 100.755 1289.83 100.226 1289.77 99.7167C1289.71 99.2075 1289.65 98.6984 1289.59 98.1892L1286.79 74.3958L1294.13 73.5311L1298.88 113.833L1291.65 114.684L1271.56 92.748C1271.19 92.3149 1270.75 91.7908 1270.24 91.1757C1269.77 90.5169 1269.44 90.0596 1269.25 89.8038L1268.95 89.8384C1269.01 90.3476 1269.08 90.8763 1269.14 91.4247C1269.2 91.9338 1269.26 92.4626 1269.33 93.0109L1272.15 116.981L1264.81 117.845Z" fill="#063835"/>
<path d="M1303.08 113.339L1314.02 71.1901L1323.65 70.0556L1344.14 108.504L1335.86 109.479L1331.62 101.282L1313.17 103.454L1310.95 112.412L1303.08 113.339ZM1314.82 96.7081L1328.39 95.1102L1323.05 84.6602C1322.85 84.287 1322.59 83.8204 1322.29 83.2606C1322.02 82.657 1321.72 82.0166 1321.41 81.3392C1321.08 80.6228 1320.76 79.9063 1320.44 79.1898C1320.12 78.4733 1319.82 77.8328 1319.56 77.2684L1319.26 77.303C1319.12 78.114 1318.93 79.0494 1318.7 80.1092C1318.51 81.1644 1318.31 82.1609 1318.1 83.0986C1317.89 84.0363 1317.72 84.7713 1317.58 85.3035L1314.82 96.7081Z" fill="#063835"/>
<path d="M1363.43 106.947C1361.2 107.209 1359.04 107.226 1356.95 106.996C1354.85 106.726 1352.96 106.175 1351.27 105.341C1349.58 104.468 1348.2 103.321 1347.12 101.899C1346.03 100.439 1345.36 98.6509 1345.11 96.5359C1345.09 96.3009 1345.06 96.0659 1345.03 95.8309C1345.04 95.5913 1345.04 95.4128 1345.03 95.2953L1352.72 94.3891C1352.73 94.4674 1352.73 94.6264 1352.72 94.866C1352.74 95.0618 1352.76 95.2381 1352.78 95.3947C1352.93 96.6872 1353.44 97.7596 1354.29 98.612C1355.14 99.4252 1356.3 100.003 1357.77 100.346C1359.24 100.65 1360.93 100.689 1362.85 100.463C1364.14 100.311 1365.27 100.099 1366.23 99.8273C1367.23 99.5507 1368.07 99.2338 1368.74 98.8766C1369.45 98.4757 1370.01 98.0517 1370.44 97.6047C1370.85 97.1186 1371.13 96.6094 1371.27 96.0771C1371.44 95.5403 1371.5 94.9782 1371.43 94.3907C1371.29 93.2548 1370.83 92.3564 1370.04 91.6952C1369.24 91.0341 1368.21 90.5204 1366.94 90.1542C1365.7 89.7834 1364.3 89.4921 1362.72 89.2803C1361.19 89.0247 1359.59 88.7761 1357.93 88.5343C1356.31 88.2879 1354.71 87.961 1353.11 87.5533C1351.55 87.1019 1350.11 86.5169 1348.79 85.7982C1347.52 85.0749 1346.45 84.1085 1345.59 82.899C1344.73 81.6504 1344.19 80.1057 1343.98 78.2648C1343.75 76.3849 1343.95 74.6938 1344.57 73.1916C1345.23 71.6848 1346.23 70.3956 1347.57 69.3242C1348.95 68.2089 1350.59 67.3206 1352.5 66.6592C1354.4 65.9586 1356.51 65.4723 1358.82 65.2002C1360.97 64.9466 1363.02 64.944 1364.95 65.1927C1366.92 65.3975 1368.69 65.9042 1370.25 66.7127C1371.81 67.4821 1373.09 68.5625 1374.09 69.954C1375.08 71.3063 1375.7 73.0007 1375.94 75.0374L1376.02 75.7423L1368.44 76.6347L1368.37 76.0472C1368.24 74.9114 1367.77 73.9933 1366.98 73.293C1366.22 72.5881 1365.19 72.094 1363.88 71.8108C1362.62 71.5229 1361.16 71.4758 1359.52 71.6695C1357.76 71.877 1356.27 72.2308 1355.06 72.7309C1353.84 73.1918 1352.94 73.7944 1352.35 74.5386C1351.76 75.2436 1351.52 76.0662 1351.63 77.0062C1351.74 77.9853 1352.19 78.7663 1352.98 79.3491C1353.76 79.9319 1354.77 80.3891 1356 80.7208C1357.27 81.0478 1358.67 81.3195 1360.2 81.5359C1361.78 81.7478 1363.38 81.9964 1365 82.2819C1366.65 82.5237 1368.26 82.8507 1369.82 83.2629C1371.42 83.6706 1372.85 84.2556 1374.14 85.0181C1375.45 85.7368 1376.54 86.7009 1377.39 87.9103C1378.25 89.1198 1378.79 90.6253 1379 92.427C1379.35 95.4428 1378.9 97.9587 1377.62 99.9747C1376.39 101.986 1374.53 103.555 1372.04 104.682C1369.59 105.804 1366.72 106.559 1363.43 106.947Z" fill="#063835"/>
<path d="M1396.78 102.306L1392.81 68.5836L1379.94 70.0986L1379.17 63.5187L1412.6 59.5826L1413.37 66.1625L1400.45 67.6843L1404.42 101.406L1396.78 102.306Z" fill="#063835"/>
<path d="M1422.7 99.254L1417.95 58.9521L1425.59 58.0528L1430.33 98.3547L1422.7 99.254Z" fill="#063835"/>
<path d="M1456.51 95.9867C1452.4 96.471 1448.79 96.1614 1445.68 95.0582C1442.61 93.9503 1440.12 91.9611 1438.19 89.0906C1436.3 86.1764 1435.07 82.2909 1434.49 77.4344C1433.66 70.3453 1434.77 64.8941 1437.81 61.0809C1440.86 57.2676 1445.45 54.9989 1451.6 54.2749C1454.93 53.8829 1457.99 54.098 1460.79 54.9202C1463.63 55.7378 1465.97 57.2098 1467.8 59.3361C1469.68 61.4187 1470.82 64.2224 1471.24 67.7474L1463.42 68.6674C1463.19 66.7091 1462.57 65.1149 1461.55 63.8847C1460.57 62.6107 1459.29 61.7088 1457.72 61.1791C1456.15 60.6494 1454.4 60.4975 1452.48 60.7234C1449.82 61.037 1447.67 61.8263 1446.03 63.0914C1444.39 64.3172 1443.25 65.9992 1442.63 68.1373C1442.05 70.2707 1441.94 72.8454 1442.29 75.8612L1442.44 77.1536C1442.8 80.2086 1443.51 82.706 1444.58 84.6457C1445.68 86.5809 1447.15 87.9562 1448.99 88.7716C1450.88 89.5824 1453.17 89.8287 1455.87 89.5105C1457.91 89.2707 1459.65 88.7279 1461.1 87.8823C1462.54 86.9974 1463.6 85.8407 1464.26 84.4123C1464.96 82.94 1465.2 81.2247 1464.97 79.2664L1472.49 78.3809C1472.9 81.9059 1472.46 84.916 1471.17 87.4113C1469.87 89.8674 1467.94 91.8224 1465.37 93.2764C1462.83 94.6867 1459.88 95.5901 1456.51 95.9867Z" fill="#063835"/>
<path d="M1495.56 91.3886C1493.33 91.6515 1491.17 91.6678 1489.08 91.4376C1486.98 91.1683 1485.09 90.6167 1483.4 89.7828C1481.71 88.9098 1480.33 87.7626 1479.25 86.3412C1478.16 84.8806 1477.49 83.0929 1477.24 80.9779C1477.22 80.7429 1477.19 80.5079 1477.16 80.2729C1477.17 80.0333 1477.17 79.8547 1477.16 79.7372L1484.85 78.831C1484.86 78.9094 1484.86 79.0683 1484.85 79.3079C1484.87 79.5038 1484.89 79.68 1484.91 79.8367C1485.06 81.1292 1485.57 82.2016 1486.42 83.054C1487.27 83.8671 1488.43 84.4453 1489.9 84.7885C1491.37 85.0924 1493.06 85.1314 1494.98 84.9054C1496.27 84.7533 1497.4 84.5412 1498.36 84.2692C1499.36 83.9927 1500.2 83.6758 1500.87 83.3186C1501.58 82.9177 1502.14 82.4937 1502.57 82.0467C1502.98 81.5605 1503.26 81.0513 1503.4 80.5191C1503.57 79.9823 1503.63 79.4201 1503.56 78.8326C1503.42 77.6968 1502.96 76.7983 1502.17 76.1372C1501.37 75.4761 1500.34 74.9624 1499.07 74.5962C1497.83 74.2254 1496.43 73.9341 1494.85 73.7223C1493.32 73.4667 1491.72 73.218 1490.06 72.9763C1488.44 72.7299 1486.84 72.4029 1485.24 71.9953C1483.68 71.5439 1482.24 70.9588 1480.92 70.2401C1479.65 69.5168 1478.58 68.5504 1477.72 67.341C1476.86 66.0923 1476.32 64.5476 1476.11 62.7068C1475.88 60.8269 1476.08 59.1358 1476.7 57.6335C1477.36 56.1267 1478.36 54.8376 1479.7 53.7661C1481.08 52.6509 1482.72 51.7626 1484.63 51.1012C1486.53 50.4006 1488.64 49.9143 1490.95 49.6422C1493.1 49.3885 1495.15 49.386 1497.08 49.6346C1499.05 49.8395 1500.82 50.3462 1502.38 51.1547C1503.94 51.9241 1505.22 53.0045 1506.22 54.3959C1507.21 55.7482 1507.83 57.4427 1508.07 59.4793L1508.15 60.1843L1500.57 61.0767L1500.5 60.4892C1500.37 59.3534 1499.9 58.4353 1499.11 57.735C1498.35 57.0301 1497.32 56.536 1496.01 56.2527C1494.75 55.9649 1493.29 55.9178 1491.65 56.1115C1489.89 56.319 1488.4 56.6728 1487.19 57.1729C1485.97 57.6338 1485.07 58.2363 1484.48 58.9806C1483.89 59.6856 1483.65 60.5081 1483.76 61.4481C1483.88 62.4273 1484.32 63.2083 1485.11 63.7911C1485.89 64.3739 1486.9 64.8311 1488.13 65.1628C1489.4 65.4898 1490.8 65.7615 1492.33 65.9779C1493.91 66.1897 1495.51 66.4384 1497.13 66.7239C1498.78 66.9657 1500.39 67.2927 1501.95 67.7049C1503.55 68.1125 1504.98 68.6976 1506.27 69.4601C1507.58 70.1787 1508.67 71.1428 1509.52 72.3523C1510.38 73.5618 1510.92 75.0673 1511.13 76.869C1511.48 79.8847 1511.03 82.4007 1509.75 84.4167C1508.52 86.4281 1506.66 87.9973 1504.17 89.1242C1501.72 90.2464 1498.85 91.0012 1495.56 91.3886Z" fill="#063835"/>
</g>
<g clip-path="url(#clip1_1_502)">
<rect width="1592" height="138" transform="translate(-70.9341 52.3926) rotate(3.00604)" fill="#851EE5"/>
<path d="M-55.8642 143.308C-62.126 142.979 -66.9018 141.05 -70.1916 137.521C-73.4794 133.952 -74.9331 128.544 -74.5525 121.298C-74.3023 116.532 -73.2892 112.656 -71.5132 109.669C-69.6957 106.645 -67.2118 104.465 -64.0614 103.13C-60.8695 101.757 -57.1076 101.185 -52.7755 101.412C-50.1763 101.549 -47.7501 101.972 -45.4969 102.683C-43.2438 103.394 -41.2828 104.405 -39.6141 105.717C-37.904 106.991 -36.6042 108.56 -35.7148 110.424C-34.8253 112.287 -34.4458 114.459 -34.576 116.94L-42.4919 116.525C-42.4237 115.225 -42.659 114.067 -43.1981 113.052C-43.6957 111.999 -44.4388 111.111 -45.4276 110.388C-46.375 109.627 -47.4902 109.055 -48.7732 108.672C-50.0542 108.249 -51.4233 107.999 -52.8805 107.923C-55.0465 107.809 -56.9721 108.004 -58.6571 108.508C-60.3008 108.975 -61.705 109.77 -62.8697 110.893C-63.993 111.979 -64.8758 113.375 -65.5182 115.078C-66.1211 116.784 -66.4836 118.799 -66.6057 121.123L-66.6708 122.363C-66.8383 125.553 -66.5229 128.196 -65.7247 130.291C-64.9264 132.387 -63.6474 133.974 -61.8875 135.054C-60.0861 136.096 -57.8268 136.689 -55.1094 136.832C-52.7858 136.954 -50.739 136.706 -48.969 136.088C-47.1596 135.472 -45.7274 134.52 -44.6725 133.233C-43.5762 131.909 -42.9763 130.262 -42.8729 128.293L-42.8512 127.879L-55.7883 127.2L-55.4533 120.82L-34.8366 121.902L-35.9782 143.641L-41.4721 143.353L-41.8861 138.829C-43.1296 139.949 -44.4416 140.867 -45.8219 141.584C-47.2002 142.262 -48.706 142.736 -50.3393 143.006C-51.9747 143.315 -53.8163 143.416 -55.8642 143.308Z" fill="white"/>
<path d="M-16.2509 144.677L-15.3854 128.196L-29.7182 103.334L-20.8572 103.799L-11.0645 121.492L-10.7692 121.508L0.704647 104.932L9.09309 105.372L-7.70583 128.599L-8.57134 145.081L-16.2509 144.677Z" fill="white"/>
<path d="M11.4403 146.132L13.5684 105.607L25.6784 106.243L30.8734 129.144C31.0683 129.944 31.2581 130.843 31.4426 131.84C31.6272 132.837 31.7942 133.793 31.9436 134.709C32.1323 135.628 32.2681 136.425 32.3511 137.1L32.8237 137.125C32.9335 136.538 33.0899 135.816 33.2929 134.958C33.496 134.1 33.7218 133.184 33.9704 132.209C34.2605 131.198 34.5682 130.227 34.8935 129.296L42.4553 107.124L54.4472 107.754L52.3192 148.278L44.6396 147.875L45.7161 127.376C45.8112 125.565 45.926 123.754 46.0605 121.945C46.195 120.135 46.3161 118.582 46.4237 117.284C46.5708 115.989 46.6505 115.223 46.6629 114.987L46.1903 114.962C46.0929 115.312 45.8557 116.07 45.4786 117.235C45.1015 118.4 44.6995 119.662 44.2727 121.022C43.8459 122.381 43.4688 123.546 43.1414 124.516L35.2469 147.382L28.1581 147.009L22.6988 123.502C22.506 122.663 22.282 121.664 22.0269 120.505C21.8133 119.309 21.581 118.092 21.33 116.855C21.1185 115.62 20.9183 114.543 20.7296 113.625L20.257 113.6C20.2406 114.665 20.2127 115.947 20.1735 117.446C20.1364 118.905 20.0972 120.404 20.0559 121.942C20.0167 123.44 19.965 124.8 19.9009 126.021L18.8245 146.519L11.4403 146.132Z" fill="white"/>
<path d="M60.6928 148.718L62.8209 108.194L70.146 108.578L86.1982 133.412C86.3827 133.659 86.6014 134.006 86.8544 134.453C87.1094 134.862 87.3447 135.269 87.5603 135.675C87.7759 136.081 87.9169 136.405 87.9832 136.645L88.2786 136.661C88.3076 136.109 88.3355 135.578 88.3624 135.066C88.3893 134.554 88.4161 134.042 88.443 133.53L89.6994 109.605L97.0836 109.993L94.9555 150.517L87.6895 150.136L71.5875 125.122C71.2973 124.633 70.9531 124.042 70.5551 123.35C70.1985 122.62 69.9487 122.113 69.8056 121.829L69.5102 121.814C69.4834 122.326 69.4554 122.857 69.4265 123.409C69.3996 123.921 69.3717 124.452 69.3427 125.004L68.077 149.106L60.6928 148.718Z" fill="white"/>
<path d="M99.1746 150.739L117.075 111.043L126.763 111.551L140.467 152.907L132.138 152.47L129.342 143.674L110.792 142.7L107.091 151.155L99.1746 150.739ZM113.556 136.329L127.202 137.046L123.703 125.844C123.566 125.442 123.395 124.94 123.189 124.337C123.026 123.696 122.844 123.015 122.645 122.294C122.448 121.533 122.251 120.773 122.054 120.012C121.857 119.251 121.676 118.57 121.51 117.969L121.214 117.954C120.937 118.729 120.594 119.619 120.186 120.625C119.817 121.632 119.451 122.58 119.088 123.47C118.726 124.359 118.433 125.054 118.209 125.556L113.556 136.329Z" fill="white"/>
<path d="M159.746 154.63C157.501 154.513 155.367 154.164 153.344 153.583C151.323 152.964 149.552 152.101 148.03 150.994C146.511 149.848 145.339 148.483 144.513 146.9C143.69 145.277 143.335 143.402 143.446 141.276C143.459 141.039 143.471 140.803 143.484 140.567C143.535 140.333 143.564 140.156 143.571 140.038L151.309 140.445C151.305 140.523 151.277 140.68 151.225 140.914C151.215 141.111 151.206 141.288 151.197 141.446C151.129 142.745 151.444 143.887 152.143 144.872C152.844 145.817 153.889 146.583 155.28 147.169C156.673 147.716 158.335 148.04 160.264 148.142C161.564 148.21 162.71 148.191 163.703 148.085C164.735 147.982 165.613 147.81 166.336 147.572C167.101 147.296 167.73 146.974 168.224 146.605C168.719 146.196 169.078 145.741 169.302 145.24C169.565 144.74 169.713 144.195 169.744 143.604C169.804 142.462 169.499 141.498 168.829 140.713C168.16 139.928 167.228 139.247 166.034 138.671C164.879 138.097 163.544 137.572 162.029 137.098C160.555 136.586 159.022 136.071 157.43 135.553C155.878 135.037 154.349 134.444 152.844 133.772C151.381 133.064 150.062 132.244 148.886 131.313C147.75 130.385 146.862 129.252 146.221 127.915C145.583 126.539 145.312 124.926 145.409 123.075C145.508 121.184 145.989 119.551 146.851 118.175C147.753 116.8 148.956 115.698 150.461 114.869C152.007 114.003 153.776 113.404 155.768 113.075C157.762 112.705 159.92 112.582 162.244 112.704C164.41 112.818 166.426 113.16 168.291 113.732C170.198 114.267 171.854 115.065 173.26 116.126C174.667 117.147 175.745 118.428 176.494 119.968C177.244 121.469 177.566 123.243 177.458 125.291L177.421 126L169.8 125.599L169.832 125.009C169.891 123.867 169.588 122.883 168.92 122.058C168.292 121.235 167.359 120.574 166.122 120.075C164.924 119.578 163.498 119.286 161.844 119.199C160.071 119.106 158.546 119.203 157.267 119.492C155.99 119.74 154.999 120.182 154.295 120.816C153.592 121.411 153.216 122.181 153.166 123.127C153.115 124.111 153.426 124.957 154.099 125.664C154.773 126.37 155.688 126.991 156.845 127.526C158.041 128.062 159.377 128.567 160.853 129.039C162.368 129.514 163.901 130.029 165.451 130.584C167.043 131.102 168.572 131.696 170.038 132.365C171.542 133.036 172.862 133.856 173.996 134.824C175.171 135.754 176.079 136.888 176.72 138.225C177.36 139.562 177.633 141.136 177.538 142.947C177.379 145.98 176.502 148.382 174.909 150.155C173.354 151.929 171.256 153.162 168.613 153.852C166.01 154.545 163.054 154.804 159.746 154.63Z" fill="white"/>
<path d="M193.396 155.687L195.176 121.778L182.239 121.099L182.587 114.483L216.199 116.248L215.852 122.864L202.856 122.182L201.075 156.09L193.396 155.687Z" fill="white"/>
<path d="M219.455 157.055L221.583 116.531L229.263 116.934L227.135 157.458L219.455 157.055Z" fill="white"/>
<path d="M253.34 159.545C249.205 159.328 245.698 158.414 242.821 156.801C239.983 155.191 237.858 152.809 236.444 149.654C235.071 146.462 234.513 142.425 234.769 137.541C235.144 130.413 237.154 125.227 240.799 121.983C244.445 118.738 249.359 117.278 255.542 117.603C258.89 117.779 261.872 118.508 264.49 119.791C267.148 121.076 269.203 122.921 270.656 125.328C272.151 127.697 272.806 130.653 272.619 134.198L264.763 133.785C264.866 131.816 264.52 130.139 263.724 128.755C262.969 127.333 261.862 126.228 260.403 125.441C258.943 124.653 257.249 124.209 255.319 124.107C252.641 123.967 250.388 124.382 248.56 125.352C246.734 126.283 245.334 127.749 244.36 129.752C243.426 131.756 242.879 134.275 242.719 137.307L242.651 138.607C242.49 141.679 242.769 144.26 243.488 146.351C244.247 148.445 245.466 150.049 247.145 151.164C248.864 152.281 251.082 152.911 253.799 153.054C255.847 153.161 257.656 152.92 259.227 152.332C260.801 151.703 262.036 150.741 262.933 149.446C263.872 148.113 264.393 146.462 264.496 144.493L272.058 144.89C271.872 148.434 270.93 151.327 269.233 153.568C267.537 155.769 265.301 157.37 262.524 158.369C259.788 159.331 256.727 159.723 253.34 159.545Z" fill="white"/>
<path d="M292.606 161.607C290.361 161.49 288.227 161.141 286.204 160.56C284.183 159.941 282.412 159.078 280.89 157.971C279.371 156.825 278.199 155.46 277.374 153.877C276.55 152.254 276.195 150.379 276.306 148.253C276.319 148.016 276.331 147.78 276.344 147.544C276.395 147.309 276.424 147.133 276.431 147.015L284.169 147.422C284.165 147.5 284.137 147.657 284.085 147.891C284.075 148.088 284.066 148.265 284.057 148.423C283.989 149.722 284.304 150.864 285.003 151.849C285.704 152.794 286.75 153.56 288.14 154.146C289.533 154.693 291.195 155.017 293.124 155.119C294.424 155.187 295.57 155.168 296.563 155.062C297.595 154.958 298.473 154.787 299.197 154.549C299.961 154.273 300.59 153.951 301.084 153.582C301.579 153.173 301.939 152.718 302.162 152.217C302.425 151.717 302.573 151.172 302.604 150.581C302.664 149.439 302.359 148.475 301.689 147.69C301.02 146.904 300.088 146.224 298.894 145.648C297.739 145.074 296.404 144.549 294.889 144.075C293.415 143.563 291.882 143.048 290.291 142.53C288.738 142.014 287.209 141.421 285.704 140.749C284.241 140.04 282.922 139.221 281.746 138.29C280.61 137.362 279.722 136.229 279.081 134.892C278.443 133.516 278.172 131.903 278.269 130.052C278.369 128.161 278.849 126.528 279.711 125.151C280.613 123.777 281.816 122.675 283.321 121.846C284.867 120.979 286.636 120.381 288.628 120.051C290.622 119.682 292.78 119.559 295.104 119.681C297.27 119.794 299.286 120.137 301.151 120.709C303.058 121.244 304.714 122.041 306.12 123.103C307.527 124.124 308.605 125.405 309.354 126.945C310.104 128.446 310.426 130.22 310.318 132.268L310.281 132.977L302.661 132.576L302.692 131.986C302.752 130.844 302.448 129.86 301.78 129.035C301.152 128.212 300.219 127.551 298.982 127.052C297.784 126.555 296.358 126.263 294.704 126.176C292.931 126.083 291.406 126.18 290.127 126.468C288.85 126.717 287.86 127.159 287.155 127.793C286.452 128.388 286.076 129.158 286.027 130.104C285.975 131.088 286.286 131.934 286.96 132.64C287.633 133.347 288.548 133.968 289.705 134.502C290.901 135.039 292.237 135.544 293.713 136.016C295.228 136.491 296.761 137.006 298.312 137.561C299.903 138.079 301.432 138.673 302.898 139.342C304.403 140.013 305.722 140.833 306.856 141.801C308.031 142.731 308.939 143.865 309.58 145.202C310.22 146.539 310.493 148.113 310.398 149.924C310.239 152.957 309.362 155.359 307.769 157.132C306.214 158.906 304.116 160.139 301.473 160.829C298.87 161.522 295.914 161.781 292.606 161.607Z" fill="white"/>
<path d="M393.673 157.902L402.644 158.373L415.264 147.02L403.902 134.406L394.931 133.935L406.293 146.549L393.673 157.902Z" fill="white"/>
<path d="M381.321 157.254L390.292 157.725L402.911 146.371L391.55 133.758L382.579 133.287L393.94 145.9L381.321 157.254Z" fill="white"/>
<path d="M368.968 156.605L377.939 157.076L390.559 145.722L379.198 133.109L370.227 132.638L381.588 145.251L368.968 156.605Z" fill="white"/>
<path d="M472.959 170.367L490.859 130.671L500.547 131.18L514.251 172.536L505.922 172.098L503.125 163.303L484.576 162.329L480.874 170.783L472.959 170.367ZM487.34 155.958L500.986 156.675L497.486 145.473C497.35 145.071 497.179 144.568 496.973 143.965C496.809 143.325 496.628 142.644 496.429 141.923C496.232 141.162 496.035 140.401 495.838 139.641C495.641 138.88 495.46 138.199 495.294 137.598L494.998 137.582C494.721 138.358 494.378 139.248 493.969 140.253C493.601 141.261 493.235 142.209 492.872 143.098C492.51 143.987 492.216 144.683 491.993 145.185L487.34 155.958Z" fill="white"/>
<path d="M518.444 172.756L520.572 132.232L552.177 133.891L551.832 140.448L527.908 139.192L527.383 149.176L548.709 150.295L548.364 156.853L527.039 155.733L526.468 166.602L550.747 167.877L550.403 174.434L518.444 172.756Z" fill="white"/>
<path d="M557.544 174.809L559.672 134.285L580.997 135.405C583.99 135.562 586.444 136.204 588.36 137.332C590.275 138.459 591.675 139.994 592.561 141.936C593.446 143.878 593.821 146.129 593.687 148.689C593.548 151.327 592.835 153.639 591.546 155.625C590.259 157.572 588.446 158.997 586.108 159.901L593.637 176.705L585.249 176.264L578.597 160.81L566.014 160.149L565.223 175.213L557.544 174.809ZM566.352 153.71L579.408 154.395C581.377 154.499 582.923 154.007 584.046 152.921C585.169 151.835 585.784 150.288 585.889 148.279C585.958 146.979 585.778 145.884 585.351 144.993C584.926 144.062 584.273 143.337 583.392 142.817C582.511 142.296 581.401 142.001 580.062 141.931L567.007 141.245L566.352 153.71Z" fill="white"/>
<path d="M617.579 178.673C613.365 178.452 609.762 177.512 606.768 175.854C603.777 174.157 601.536 171.709 600.045 168.511C598.594 165.315 597.993 161.354 598.241 156.628C598.491 151.863 599.504 147.987 601.28 145C603.098 141.976 605.582 139.796 608.732 138.461C611.884 137.086 615.568 136.509 619.782 136.731C624.035 136.954 627.637 137.913 630.589 139.608C633.582 141.266 635.805 143.693 637.256 146.889C638.749 150.048 639.37 154.01 639.12 158.775C638.872 163.501 637.839 167.376 636.021 170.4C634.243 173.427 631.778 175.627 628.625 177.002C625.514 178.339 621.832 178.896 617.579 178.673ZM617.92 172.175C619.968 172.282 621.776 172.081 623.342 171.571C624.949 171.063 626.314 170.266 627.437 169.18C628.562 168.054 629.445 166.659 630.085 164.994C630.728 163.291 631.108 161.316 631.226 159.071L631.294 157.772C631.414 155.488 631.244 153.465 630.783 151.703C630.323 149.941 629.591 148.461 628.588 147.263C627.586 146.026 626.314 145.071 624.769 144.397C623.265 143.726 621.488 143.336 619.44 143.229C617.392 143.121 615.565 143.321 613.959 143.829C612.392 144.34 611.046 145.157 609.921 146.283C608.797 147.369 607.914 148.764 607.272 150.468C606.669 152.174 606.308 154.169 606.188 156.453L606.119 157.753C606.002 159.998 606.153 162 606.574 163.76C607.037 165.482 607.768 166.962 608.77 168.199C609.773 169.397 611.027 170.332 612.532 171.003C614.076 171.677 615.872 172.067 617.92 172.175Z" fill="white"/>
<path d="M644.626 179.382L646.754 138.858L668.848 140.018C671.014 140.132 672.922 140.647 674.572 141.563C676.261 142.481 677.559 143.714 678.465 145.262C679.371 146.81 679.771 148.589 679.666 150.597C679.585 152.133 679.216 153.516 678.559 154.745C677.902 155.974 677.039 156.995 675.97 157.808C674.942 158.583 673.786 159.154 672.503 159.521L672.491 159.757C673.971 160.151 675.278 160.832 676.412 161.8C677.548 162.728 678.414 163.899 679.011 165.313C679.611 166.687 679.864 168.26 679.771 170.032C679.638 172.553 678.957 174.61 677.729 176.204C676.539 177.8 674.977 178.962 673.044 179.69C671.151 180.38 669.043 180.665 666.72 180.543L644.626 179.382ZM652.65 173.228L666.06 173.933C667.674 174.017 669.017 173.654 670.086 172.841C671.197 171.991 671.802 170.621 671.901 168.73C671.959 167.628 671.793 166.651 671.403 165.802C671.014 164.952 670.377 164.287 669.494 163.806C668.653 163.288 667.543 162.993 666.164 162.92L653.227 162.241L652.65 173.228ZM653.565 155.802L665.971 156.453C667.152 156.515 668.148 156.35 668.958 155.959C669.808 155.569 670.45 155.01 670.883 154.282C671.355 153.557 671.615 152.741 671.663 151.836C671.754 150.103 671.349 148.798 670.447 147.921C669.584 147.047 668.405 146.57 666.908 146.492L654.09 145.818L653.565 155.802Z" fill="white"/>
<path d="M685.745 181.542L687.873 141.017L695.552 141.42L693.424 181.945L685.745 181.542Z" fill="white"/>
<path d="M719.629 184.032C715.494 183.815 711.988 182.9 709.111 181.288C706.273 179.678 704.147 177.295 702.733 174.141C701.36 170.949 700.802 166.911 701.059 162.028C701.433 154.9 703.443 149.713 707.089 146.469C710.734 143.225 715.648 141.765 721.832 142.09C725.179 142.265 728.162 142.995 730.78 144.277C733.437 145.562 735.493 147.408 736.946 149.814C738.441 152.183 739.095 155.14 738.909 158.684L731.052 158.271C731.155 156.302 730.809 154.626 730.013 153.241C729.258 151.819 728.151 150.715 726.692 149.927C725.233 149.14 723.538 148.695 721.608 148.594C718.93 148.453 716.677 148.868 714.849 149.838C713.023 150.769 711.623 152.236 710.649 154.238C709.715 156.243 709.168 158.761 709.009 161.794L708.941 163.093C708.779 166.165 709.058 168.747 709.778 170.838C710.537 172.931 711.756 174.535 713.435 175.65C715.153 176.767 717.371 177.397 720.088 177.54C722.136 177.647 723.946 177.407 725.517 176.818C727.09 176.19 728.325 175.228 729.223 173.932C730.161 172.599 730.682 170.948 730.786 168.979L738.347 169.376C738.161 172.921 737.219 175.813 735.522 178.054C733.827 180.256 731.591 181.856 728.813 182.856C726.077 183.818 723.016 184.21 719.629 184.032Z" fill="white"/>
<path d="M758.895 186.094C756.651 185.976 754.517 185.627 752.494 185.047C750.473 184.427 748.701 183.564 747.18 182.458C745.66 181.312 744.488 179.947 743.663 178.363C742.84 176.74 742.484 174.866 742.596 172.739C742.608 172.503 742.621 172.266 742.633 172.03C742.685 171.796 742.714 171.62 742.72 171.502L750.459 171.908C750.454 171.987 750.427 172.143 750.375 172.377C750.364 172.574 750.355 172.752 750.347 172.909C750.279 174.209 750.594 175.351 751.292 176.335C751.993 177.28 753.039 178.046 754.43 178.633C755.823 179.18 757.484 179.504 759.414 179.605C760.713 179.673 761.86 179.655 762.852 179.549C763.885 179.445 764.762 179.274 765.486 179.035C766.251 178.76 766.88 178.437 767.373 178.068C767.868 177.66 768.228 177.205 768.452 176.703C768.715 176.204 768.862 175.658 768.893 175.068C768.953 173.926 768.648 172.962 767.979 172.176C767.309 171.391 766.377 170.71 765.183 170.134C764.029 169.56 762.694 169.036 761.178 168.561C759.705 168.049 758.172 167.535 756.58 167.017C755.027 166.501 753.499 165.907 751.994 165.236C750.53 164.527 749.211 163.707 748.036 162.777C746.9 161.848 746.011 160.716 745.371 159.379C744.732 158.003 744.461 156.389 744.559 154.538C744.658 152.648 745.139 151.014 746.001 149.638C746.902 148.264 748.105 147.162 749.61 146.332C751.156 145.466 752.925 144.868 754.917 144.538C756.911 144.169 759.07 144.045 761.393 144.167C763.559 144.281 765.575 144.624 767.441 145.196C769.348 145.73 771.004 146.528 772.409 147.589C773.817 148.611 774.895 149.892 775.643 151.431C776.394 152.932 776.715 154.706 776.608 156.754L776.57 157.463L768.95 157.063L768.981 156.472C769.041 155.33 768.737 154.347 768.07 153.522C767.441 152.699 766.509 152.038 765.271 151.538C764.073 151.041 762.647 150.749 760.993 150.662C759.221 150.569 757.695 150.667 756.416 150.955C755.14 151.204 754.149 151.645 753.444 152.28C752.742 152.875 752.365 153.645 752.316 154.59C752.264 155.575 752.575 156.42 753.249 157.127C753.923 157.834 754.838 158.454 755.994 158.989C757.19 159.526 758.526 160.03 760.002 160.503C761.518 160.977 763.05 161.492 764.601 162.047C766.193 162.565 767.721 163.159 769.187 163.828C770.692 164.5 772.011 165.319 773.145 166.287C774.321 167.218 775.229 168.351 775.869 169.688C776.51 171.025 776.783 172.599 776.687 174.411C776.528 177.443 775.652 179.846 774.058 181.618C772.504 183.393 770.405 184.625 767.762 185.316C765.159 186.008 762.203 186.268 758.895 186.094Z" fill="white"/>
<path d="M859.962 182.389L868.933 182.86L881.553 171.506L870.192 158.893L861.221 158.422L872.582 171.035L859.962 182.389Z" fill="white"/>
<path d="M847.61 181.74L856.581 182.211L869.201 170.857L857.839 158.244L848.868 157.773L860.23 170.386L847.61 181.74Z" fill="white"/>
<path d="M835.258 181.092L844.229 181.563L856.848 170.209L845.487 157.596L836.516 157.125L847.877 169.738L835.258 181.092Z" fill="white"/>
<path d="M939.248 194.854L941.376 154.33L970.499 155.859L970.155 162.416L948.711 161.29L948.14 172.16L967.457 173.174L967.113 179.731L947.796 178.717L946.927 195.257L939.248 194.854Z" fill="white"/>
<path d="M974.655 196.713L976.783 156.189L984.463 156.592L982.335 197.117L974.655 196.713Z" fill="white"/>
<path d="M1000.66 198.079L1002.44 164.171L989.504 163.491L989.852 156.875L1023.46 158.64L1023.12 165.257L1010.12 164.574L1008.34 198.482L1000.66 198.079Z" fill="white"/>
<path d="M1026.72 199.447L1028.85 158.923L1036.17 159.308L1052.23 184.141C1052.41 184.388 1052.63 184.735 1052.88 185.183C1053.14 185.591 1053.37 185.998 1053.59 186.405C1053.8 186.811 1053.94 187.134 1054.01 187.375L1054.31 187.39C1054.34 186.839 1054.36 186.307 1054.39 185.795C1054.42 185.283 1054.44 184.771 1054.47 184.259L1055.73 160.335L1063.11 160.722L1060.98 201.247L1053.72 200.865L1037.62 175.851C1037.32 175.362 1036.98 174.771 1036.58 174.079C1036.23 173.349 1035.98 172.843 1035.83 172.559L1035.54 172.543C1035.51 173.055 1035.48 173.587 1035.45 174.138C1035.43 174.65 1035.4 175.182 1035.37 175.733L1034.1 199.835L1026.72 199.447Z" fill="white"/>
<path d="M1069.4 201.689L1071.52 161.164L1103.13 162.824L1102.78 169.381L1078.86 168.125L1078.34 178.108L1099.66 179.228L1099.32 185.785L1077.99 184.665L1077.42 195.535L1101.7 196.81L1101.36 203.367L1069.4 201.689Z" fill="white"/>
<path d="M1123.58 205.245C1121.34 205.127 1119.2 204.778 1117.18 204.198C1115.16 203.578 1113.39 202.715 1111.87 201.609C1110.35 200.462 1109.17 199.098 1108.35 197.514C1107.53 195.891 1107.17 194.017 1107.28 191.89C1107.29 191.654 1107.31 191.417 1107.32 191.181C1107.37 190.947 1107.4 190.771 1107.41 190.653L1115.14 191.059C1115.14 191.138 1115.11 191.294 1115.06 191.528C1115.05 191.725 1115.04 191.903 1115.03 192.06C1114.96 193.36 1115.28 194.502 1115.98 195.486C1116.68 196.431 1117.72 197.197 1119.12 197.783C1120.51 198.331 1122.17 198.655 1124.1 198.756C1125.4 198.824 1126.55 198.806 1127.54 198.7C1128.57 198.596 1129.45 198.425 1130.17 198.186C1130.94 197.911 1131.57 197.588 1132.06 197.219C1132.55 196.811 1132.91 196.356 1133.14 195.854C1133.4 195.355 1133.55 194.809 1133.58 194.219C1133.64 193.077 1133.33 192.113 1132.66 191.327C1132 190.542 1131.06 189.861 1129.87 189.285C1128.71 188.711 1127.38 188.187 1125.86 187.712C1124.39 187.2 1122.86 186.686 1121.27 186.168C1119.71 185.652 1118.18 185.058 1116.68 184.387C1115.22 183.678 1113.9 182.858 1112.72 181.928C1111.59 180.999 1110.7 179.867 1110.06 178.53C1109.42 177.154 1109.15 175.54 1109.24 173.689C1109.34 171.799 1109.82 170.165 1110.69 168.789C1111.59 167.415 1112.79 166.313 1114.3 165.483C1115.84 164.617 1117.61 164.019 1119.6 163.689C1121.6 163.32 1123.76 163.196 1126.08 163.318C1128.25 163.432 1130.26 163.775 1132.13 164.347C1134.03 164.881 1135.69 165.679 1137.1 166.74C1138.5 167.762 1139.58 169.042 1140.33 170.582C1141.08 172.083 1141.4 173.857 1141.29 175.905L1141.26 176.614L1133.64 176.214L1133.67 175.623C1133.73 174.481 1133.42 173.498 1132.76 172.673C1132.13 171.85 1131.19 171.189 1129.96 170.689C1128.76 170.192 1127.33 169.9 1125.68 169.813C1123.91 169.72 1122.38 169.818 1121.1 170.106C1119.83 170.355 1118.83 170.796 1118.13 171.431C1117.43 172.026 1117.05 172.796 1117 173.741C1116.95 174.726 1117.26 175.571 1117.93 176.278C1118.61 176.985 1119.52 177.605 1120.68 178.14C1121.88 178.677 1123.21 179.181 1124.69 179.654C1126.2 180.128 1127.74 180.643 1129.29 181.198C1130.88 181.716 1132.41 182.31 1133.87 182.979C1135.38 183.651 1136.7 184.47 1137.83 185.438C1139.01 186.369 1139.91 187.502 1140.56 188.839C1141.2 190.176 1141.47 191.75 1141.37 193.562C1141.21 196.594 1140.34 198.997 1138.74 200.769C1137.19 202.543 1135.09 203.776 1132.45 204.467C1129.85 205.159 1126.89 205.419 1123.58 205.245Z" fill="white"/>
<path d="M1162.39 207.283C1160.15 207.165 1158.01 206.816 1155.99 206.236C1153.97 205.616 1152.2 204.753 1150.68 203.647C1149.16 202.501 1147.98 201.136 1147.16 199.552C1146.34 197.929 1145.98 196.055 1146.09 193.928C1146.11 193.692 1146.12 193.455 1146.13 193.219C1146.18 192.985 1146.21 192.809 1146.22 192.691L1153.96 193.097C1153.95 193.176 1153.92 193.332 1153.87 193.567C1153.86 193.763 1153.85 193.941 1153.84 194.098C1153.78 195.398 1154.09 196.54 1154.79 197.524C1155.49 198.469 1156.54 199.235 1157.93 199.822C1159.32 200.369 1160.98 200.693 1162.91 200.794C1164.21 200.862 1165.36 200.844 1166.35 200.738C1167.38 200.634 1168.26 200.463 1168.98 200.224C1169.75 199.949 1170.38 199.626 1170.87 199.257C1171.37 198.849 1171.72 198.394 1171.95 197.892C1172.21 197.393 1172.36 196.848 1172.39 196.257C1172.45 195.115 1172.15 194.151 1171.48 193.365C1170.81 192.58 1169.87 191.899 1168.68 191.323C1167.53 190.749 1166.19 190.225 1164.68 189.75C1163.2 189.239 1161.67 188.724 1160.08 188.206C1158.52 187.69 1157 187.096 1155.49 186.425C1154.03 185.716 1152.71 184.896 1151.53 183.966C1150.4 183.037 1149.51 181.905 1148.87 180.568C1148.23 179.192 1147.96 177.578 1148.06 175.727C1148.15 173.837 1148.64 172.203 1149.5 170.827C1150.4 169.453 1151.6 168.351 1153.11 167.522C1154.65 166.655 1156.42 166.057 1158.41 165.727C1160.41 165.358 1162.57 165.234 1164.89 165.356C1167.06 165.47 1169.07 165.813 1170.94 166.385C1172.84 166.919 1174.5 167.717 1175.91 168.778C1177.31 169.8 1178.39 171.081 1179.14 172.621C1179.89 174.121 1180.21 175.895 1180.1 177.943L1180.07 178.652L1172.45 178.252L1172.48 177.661C1172.54 176.519 1172.23 175.536 1171.57 174.711C1170.94 173.888 1170.01 173.227 1168.77 172.727C1167.57 172.23 1166.14 171.938 1164.49 171.851C1162.72 171.758 1161.19 171.856 1159.91 172.144C1158.64 172.393 1157.65 172.834 1156.94 173.469C1156.24 174.064 1155.86 174.834 1155.81 175.779C1155.76 176.764 1156.07 177.609 1156.75 178.316C1157.42 179.023 1158.33 179.643 1159.49 180.178C1160.69 180.715 1162.02 181.219 1163.5 181.692C1165.01 182.166 1166.55 182.681 1168.1 183.236C1169.69 183.754 1171.22 184.348 1172.68 185.017C1174.19 185.689 1175.51 186.508 1176.64 187.476C1177.82 188.407 1178.73 189.54 1179.37 190.877C1180.01 192.214 1180.28 193.788 1180.18 195.6C1180.03 198.632 1179.15 201.035 1177.55 202.807C1176 204.582 1173.9 205.814 1171.26 206.505C1168.66 207.197 1165.7 207.457 1162.39 207.283Z" fill="white"/>
<path d="M1263.46 203.578L1272.43 204.049L1285.05 192.695L1273.69 180.082L1264.72 179.611L1276.08 192.224L1263.46 203.578Z" fill="white"/>
<path d="M1251.11 202.929L1260.08 203.4L1272.7 192.046L1261.34 179.433L1252.37 178.962L1263.73 191.575L1251.11 202.929Z" fill="white"/>
<path d="M1238.75 202.281L1247.73 202.752L1260.35 191.398L1248.98 178.785L1240.01 178.314L1251.37 190.927L1238.75 202.281Z" fill="white"/>
<path d="M1358.34 216.862L1359.21 200.38L1344.87 175.519L1353.73 175.984L1363.53 193.677L1363.82 193.692L1375.3 177.116L1383.68 177.557L1366.89 200.784L1366.02 217.265L1358.34 216.862Z" fill="white"/>
<path d="M1403.74 219.957C1399.52 219.735 1395.92 218.796 1392.93 217.138C1389.94 215.441 1387.69 212.993 1386.2 209.795C1384.75 206.599 1384.15 202.638 1384.4 197.912C1384.65 193.147 1385.66 189.271 1387.44 186.284C1389.26 183.259 1391.74 181.08 1394.89 179.744C1398.04 178.37 1401.73 177.793 1405.94 178.014C1410.19 178.238 1413.8 179.197 1416.75 180.892C1419.74 182.55 1421.96 184.977 1423.41 188.173C1424.91 191.332 1425.53 195.294 1425.28 200.059C1425.03 204.785 1424 208.66 1422.18 211.684C1420.4 214.711 1417.94 216.911 1414.78 218.286C1411.67 219.623 1407.99 220.18 1403.74 219.957ZM1404.08 213.459C1406.13 213.566 1407.93 213.365 1409.5 212.855C1411.11 212.347 1412.47 211.55 1413.59 210.463C1414.72 209.338 1415.6 207.943 1416.24 206.278C1416.89 204.574 1417.27 202.6 1417.38 200.355L1417.45 199.056C1417.57 196.771 1417.4 194.748 1416.94 192.987C1416.48 191.225 1415.75 189.745 1414.75 188.547C1413.74 187.31 1412.47 186.354 1410.93 185.681C1409.42 185.01 1407.65 184.62 1405.6 184.513C1403.55 184.405 1401.72 184.605 1400.12 185.113C1398.55 185.623 1397.2 186.441 1396.08 187.567C1394.96 188.653 1394.07 190.048 1393.43 191.752C1392.83 193.458 1392.47 195.453 1392.35 197.737L1392.28 199.037C1392.16 201.282 1392.31 203.284 1392.73 205.044C1393.19 206.766 1393.93 208.246 1394.93 209.483C1395.93 210.681 1397.19 211.616 1398.69 212.287C1400.23 212.961 1402.03 213.351 1404.08 213.459Z" fill="white"/>
<path d="M1449.18 222.343C1442.92 222.014 1438.14 220.085 1434.85 216.555C1431.56 212.987 1430.11 207.579 1430.49 200.333C1430.74 195.567 1431.75 191.691 1433.53 188.704C1435.35 185.68 1437.83 183.5 1440.98 182.165C1444.17 180.792 1447.93 180.22 1452.27 180.447C1454.87 180.584 1457.29 181.007 1459.55 181.718C1461.8 182.429 1463.76 183.44 1465.43 184.752C1467.14 186.026 1468.44 187.595 1469.33 189.459C1470.22 191.322 1470.6 193.494 1470.47 195.975L1462.55 195.559C1462.62 194.26 1462.38 193.102 1461.84 192.087C1461.35 191.034 1460.6 190.146 1459.61 189.422C1458.67 188.662 1457.55 188.09 1456.27 187.707C1454.99 187.284 1453.62 187.034 1452.16 186.958C1450 186.844 1448.07 187.039 1446.39 187.543C1444.74 188.01 1443.34 188.805 1442.17 189.928C1441.05 191.014 1440.17 192.409 1439.52 194.113C1438.92 195.819 1438.56 197.834 1438.44 200.158L1438.37 201.398C1438.2 204.588 1438.52 207.231 1439.32 209.326C1440.12 211.422 1441.39 213.009 1443.15 214.089C1444.96 215.131 1447.22 215.724 1449.93 215.867C1452.26 215.989 1454.3 215.741 1456.07 215.123C1457.88 214.507 1459.31 213.555 1460.37 212.268C1461.47 210.944 1462.07 209.297 1462.17 207.328L1462.19 206.914L1449.25 206.235L1449.59 199.855L1470.21 200.937L1469.06 222.676L1463.57 222.388L1463.16 217.864C1461.91 218.984 1460.6 219.902 1459.22 220.619C1457.84 221.297 1456.34 221.771 1454.7 222.041C1453.07 222.35 1451.23 222.451 1449.18 222.343Z" fill="white"/>
<path d="M1472.9 222.878L1490.8 183.182L1500.49 183.69L1514.19 225.046L1505.86 224.609L1503.07 215.814L1484.52 214.839L1480.82 223.294L1472.9 222.878ZM1487.28 208.469L1500.93 209.185L1497.43 197.983C1497.29 197.581 1497.12 197.079 1496.92 196.476C1496.75 195.835 1496.57 195.154 1496.37 194.433C1496.17 193.672 1495.98 192.912 1495.78 192.151C1495.58 191.39 1495.4 190.709 1495.24 190.108L1494.94 190.093C1494.66 190.868 1494.32 191.758 1493.91 192.764C1493.54 193.771 1493.18 194.719 1492.81 195.609C1492.45 196.498 1492.16 197.193 1491.93 197.695L1487.28 208.469Z" fill="white"/>
</g>
<defs>
<clipPath id="clip0_1_502">
<rect width="1592" height="138" fill="white" transform="translate(-79 186.168) rotate(-6.71552)"/>
</clipPath>
<clipPath id="clip1_1_502">
<rect width="1592" height="138" fill="white" transform="translate(-70.9341 52.3926) rotate(3.00604)"/>
</clipPath>
</defs>
</svg>
