<svg width="202" height="32" viewBox="0 0 202 32" fill="none" xmlns="http://www.w3.org/2000/svg">
<path d="M83.0334 29.7421V2.25785H104.117V7.85873H90.1945V13.7797H102.436V19.2605H90.1945V29.7421H83.0334Z" fill="white"/>
<path d="M107.062 29.7421V2.25785H114.223V29.7421H107.062Z" fill="white"/>
<path d="M125.509 29.7421V8.13877H116.588V2.25785H141.592V8.13877H132.67V29.7421H125.509Z" fill="white"/>
<path d="M155.413 30.2222C150.986 30.2222 147.612 29.0487 145.292 26.7017C142.998 24.3546 141.851 20.7807 141.851 15.98C141.851 12.8062 142.411 10.1791 143.531 8.09877C144.678 5.99177 146.332 4.41819 148.492 3.37803C150.679 2.3112 153.306 1.77778 156.373 1.77778C158.214 1.77778 159.947 1.99115 161.574 2.41788C163.201 2.84461 164.641 3.48471 165.895 4.33818C167.148 5.16497 168.122 6.21847 168.815 7.49867C169.509 8.7522 169.855 10.2324 169.855 11.9394H162.814C162.814 11.2193 162.654 10.5792 162.334 10.0191C162.014 9.43231 161.561 8.95223 160.974 8.57884C160.414 8.17878 159.761 7.8854 159.014 7.69871C158.267 7.48534 157.48 7.37865 156.653 7.37865C155.426 7.37865 154.333 7.53868 153.373 7.85873C152.439 8.17878 151.666 8.67219 151.052 9.33896C150.439 10.0057 149.972 10.8192 149.652 11.7793C149.359 12.7395 149.212 13.8597 149.212 15.1399V16.9001C149.212 18.6071 149.479 20.034 150.012 21.1808C150.546 22.3277 151.346 23.1945 152.413 23.7812C153.506 24.3413 154.84 24.6213 156.413 24.6213C157.64 24.6213 158.734 24.4347 159.694 24.0613C160.681 23.6879 161.454 23.1545 162.014 22.461C162.601 21.7409 162.894 20.8874 162.894 19.9006V19.7006H155.493V14.6598H169.855V29.7421H165.695L165.015 26.8617C164.188 27.6085 163.294 28.2352 162.334 28.742C161.401 29.2487 160.361 29.6221 159.214 29.8622C158.094 30.1022 156.827 30.2222 155.413 30.2222Z" fill="white"/>
<path d="M187.115 30.2222C184.101 30.2222 181.514 29.7021 179.354 28.662C177.22 27.5951 175.58 26.0082 174.433 23.9012C173.286 21.7942 172.713 19.1538 172.713 15.98C172.713 12.8062 173.286 10.1791 174.433 8.09877C175.58 5.99177 177.22 4.41819 179.354 3.37803C181.514 2.3112 184.101 1.77778 187.115 1.77778C190.129 1.77778 192.703 2.3112 194.837 3.37803C196.997 4.41819 198.65 5.99177 199.797 8.09877C200.944 10.1791 201.518 12.8062 201.518 15.98C201.518 19.1538 200.944 21.7942 199.797 23.9012C198.65 26.0082 196.997 27.5951 194.837 28.662C192.703 29.7021 190.129 30.2222 187.115 30.2222ZM187.115 24.6213C188.262 24.6213 189.276 24.448 190.156 24.1013C191.036 23.7545 191.769 23.2478 192.356 22.581C192.97 21.9143 193.423 21.1008 193.716 20.1406C194.01 19.1805 194.156 18.1003 194.156 16.9001V15.1399C194.156 13.913 194.01 12.8195 193.716 11.8594C193.423 10.8992 192.97 10.0857 192.356 9.41897C191.769 8.7522 191.036 8.24546 190.156 7.89874C189.276 7.55202 188.262 7.37865 187.115 7.37865C185.942 7.37865 184.915 7.55202 184.035 7.89874C183.155 8.24546 182.421 8.7522 181.834 9.41897C181.248 10.0857 180.808 10.8992 180.514 11.8594C180.221 12.8195 180.074 13.913 180.074 15.1399V16.9001C180.074 18.1003 180.221 19.1805 180.514 20.1406C180.808 21.1008 181.248 21.9143 181.834 22.581C182.421 23.2478 183.155 23.7545 184.035 24.1013C184.915 24.448 185.942 24.6213 187.115 24.6213Z" fill="white"/>
<path d="M0 31.8261L11.9127 31.8261L27.8351 15.913L11.9127 0L5.3074e-06 0L15.9224 15.913L0 31.8261Z" fill="white"/>
<path d="M60.0729 31.8261L48.1602 31.8261L32.2378 15.913L48.1602 0L60.0729 0L44.1505 15.913L60.0729 31.8261Z" fill="white"/>
<path d="M15.835 31.8261H27.7477L43.6701 15.913L27.7477 0L15.835 0L31.7574 15.913L15.835 31.8261Z" fill="white"/>
<path d="M75.9224 32L64.0097 32L48.0873 16.087L64.0097 0.173913L75.9224 0.173913L60 16.087L75.9224 32Z" fill="white"/>
</svg>
